<?xml version="1.0" encoding="UTF-8" standalone="no"?>
<svg
   width="100%"
   height="100%"
   viewBox="0 0 4865 1182"
   version="1.1"
   xml:space="preserve"
   style="fill-rule:evenodd;clip-rule:evenodd;stroke-linejoin:round;stroke-miterlimit:2;"
   id="svg11"
   sodipodi:docname="zeeta_logo.svg"
   inkscape:version="1.2.2 (732a01da63, 2022-12-09)"
   xmlns:inkscape="http://www.inkscape.org/namespaces/inkscape"
   xmlns:sodipodi="http://sodipodi.sourceforge.net/DTD/sodipodi-0.dtd"
   xmlns="http://www.w3.org/2000/svg"
   xmlns:svg="http://www.w3.org/2000/svg"
   xmlns:serif="http://www.serif.com/"><defs
     id="defs15" /><sodipodi:namedview
     id="namedview13"
     pagecolor="#ffffff"
     bordercolor="#000000"
     borderopacity="0.25"
     inkscape:showpageshadow="2"
     inkscape:pageopacity="0.0"
     inkscape:pagecheckerboard="0"
     inkscape:deskcolor="#d1d1d1"
     showgrid="false"
     inkscape:zoom="0.23001028"
     inkscape:cx="1665.143"
     inkscape:cy="591.27793"
     inkscape:window-width="1920"
     inkscape:window-height="1009"
     inkscape:window-x="1912"
     inkscape:window-y="0"
     inkscape:window-maximized="1"
     inkscape:current-layer="g9" /><g
     id="Negro-sobre-Blanco"
     serif:id="Negro sobre Blanco" /><rect
     id="zeeta_logo"
     x="0"
     y="0"
     width="4864.96"
     height="1181.1"
     style="fill:none;" /><clipPath
     id="_clip1"><rect
       x="0"
       y="0"
       width="4864.96"
       height="1181.1"
       id="rect4" /></clipPath><g
     clip-path="url(#_clip1)"
     id="g9"><path
       d="M3392.25,148.609l-1987.11,0c-40.495,0 -73.324,-33.017 -73.324,-73.74c0,-40.741 32.829,-73.759 73.324,-73.759l2508.33,0c40.49,0 73.31,33.018 73.31,73.759c0,40.723 -32.82,73.74 -73.31,73.74l-373.715,0l0,961.162c0,39.396 -33.008,71.331 -73.745,71.331c-40.74,0 -73.753,-31.935 -73.753,-71.331l0,-961.162Zm512.761,1032.48c-9.002,0 -18.142,-1.622 -27.045,-5.082c-38.506,-14.942 -57.61,-58.289 -42.672,-96.786l453.75,-1033.26c10.946,-28.221 36.687,-44.258 66.951,-44.933c30.505,-0.715 55.222,17.061 67.389,44.75l435.25,1030.42c16.605,37.844 -0.594,81.956 -38.412,98.56c-37.822,16.623 -81.937,-0.585 -98.555,-38.403l-366.669,-899.02l-168.006,405.568l-212.232,490.439c-11.496,29.621 -39.78,47.745 -69.749,47.745Zm-3831.1,-1032.49c-29.505,0 -70.365,-29.504 -70.365,-73.749c0,-44.25 40.861,-73.75 70.365,-73.75l888.37,-1.108c46.824,0 92.714,59.451 69.007,116.292c-2.619,6.284 -16.019,26.563 -20.542,31.654l-770.417,885.656l2791.14,-0.662c88.499,0 88.499,147.499 0,147.499l-2957.55,0.662c-47.034,-0.001 -85.464,-44.617 -70.714,-103.621c1.658,-6.637 7.169,-24.024 11.715,-29.133l799.872,-899.74l-740.873,0Zm1685.53,520.773c-28.3,79.684 -101.399,138.81 -188.455,146.575c-137.853,12.283 -252.847,-102.726 -240.538,-240.544c9.444,-105.645 94.528,-190.712 200.173,-200.129c104.702,-9.325 196.227,54.808 228.78,146.599l974.211,0c39.163,0 70.911,33.027 70.911,73.75c0,40.74 -31.748,73.749 -70.911,73.749l-974.171,0Zm-208.302,-150.89c40.634,0 73.623,32.989 73.623,73.623c0,40.634 -32.989,73.624 -73.623,73.624c-40.633,0 -73.623,-32.99 -73.623,-73.624c0,-40.634 32.99,-73.623 73.623,-73.623Z"
       id="path7"
       style="fill:#ffffff" /></g></svg>
